<?xml version="1.0" standalone="no"?>
<!DOCTYPE svg PUBLIC "-//W3C//DTD SVG 20010904//EN"
 "http://www.w3.org/TR/2001/REC-SVG-20010904/DTD/svg10.dtd">
<svg version="1.0" xmlns="http://www.w3.org/2000/svg"
 width="420.000000pt" height="420.000000pt" viewBox="0 0 420.000000 420.000000"
 preserveAspectRatio="xMidYMid meet">
<metadata>
Created by potrace 1.14, written by Peter Selinger 2001-2017
</metadata>
<g transform="translate(0.000000,420.000000) scale(0.100000,-0.100000)"
fill="#000000" stroke="none">
<path d="M2155 3646 c-27 -6 -68 -11 -90 -10 -50 2 -121 -33 -169 -82 -19 -20
-34 -39 -34 -43 1 -3 -6 -20 -15 -38 -9 -18 -17 -39 -17 -48 0 -8 -4 -15 -9
-15 -13 0 -60 -51 -74 -81 -7 -13 -43 -42 -79 -64 -72 -43 -138 -101 -138
-121 0 -6 -22 -35 -49 -63 -43 -45 -52 -50 -73 -42 -12 5 -35 12 -49 15 -23 5
-27 12 -33 53 -9 65 -42 121 -94 157 -34 24 -56 31 -106 34 -69 5 -114 -11
-160 -53 l-25 -23 -15 23 c-90 137 -284 139 -373 3 -25 -37 -28 -51 -28 -125
l0 -83 -30 0 c-42 -1 -108 -32 -133 -65 -31 -40 -46 -96 -38 -148 8 -55 62
-121 112 -137 25 -9 154 -12 435 -12 370 1 398 -1 390 -16 -12 -24 -32 -109
-38 -162 -3 -25 -6 -47 -8 -49 -3 -2 2 -16 10 -32 11 -21 14 -62 13 -171 -2
-131 7 -283 18 -300 11 -18 -15 -15 -36 4 -51 47 -108 -18 -106 -121 l1 -59
-29 25 c-82 68 -205 92 -307 58 -71 -24 -157 -109 -182 -180 -19 -54 -23 -159
-7 -199 8 -22 5 -27 -25 -46 -82 -50 -106 -167 -53 -248 15 -22 48 -53 73 -67
44 -26 51 -27 228 -30 100 -2 277 -4 393 -4 l211 -1 49 -62 c50 -64 178 -195
253 -258 23 -19 48 -41 56 -47 7 -7 18 -13 24 -13 6 0 11 -3 11 -8 0 -13 117
-63 182 -76 35 -7 131 -14 214 -14 259 -2 352 37 563 233 83 77 154 153 181
195 8 12 21 28 28 36 6 7 12 17 12 22 0 5 7 16 17 23 13 11 80 14 337 15 343
0 354 2 399 52 26 29 46 90 40 126 -10 66 -88 136 -151 136 -19 0 -22 6 -22
35 0 45 -32 108 -67 133 -32 22 -104 44 -124 38 -8 -2 -26 -7 -41 -10 -14 -3
-40 -17 -56 -31 -25 -21 -31 -23 -42 -11 -7 9 -9 29 -5 53 29 168 24 252 -18
291 l-23 22 -39 -20 c-22 -11 -41 -20 -43 -20 -4 0 4 63 13 110 14 72 16 125
14 325 0 22 2 71 3 109 3 44 -3 94 -14 140 -10 39 -18 82 -16 96 1 14 -4 35
-10 48 l-13 22 89 0 c109 0 175 19 229 65 68 58 94 165 60 247 -21 51 -80 105
-136 125 -44 15 -50 21 -55 53 -9 57 -64 157 -104 190 -65 54 -119 74 -202 74
-61 1 -85 -4 -130 -25 -52 -25 -130 -90 -130 -109 0 -5 -27 -7 -61 -5 -59 3
-61 4 -81 42 -21 39 -129 153 -146 153 -5 0 -19 9 -32 20 -12 11 -27 17 -31
14 -5 -3 -9 -1 -9 4 0 5 -15 13 -32 17 -18 4 -40 9 -48 12 -38 10 -109 10
-155 -1z"/>
</g>
</svg>
